solid tetrahedron_ASCII.stl
facet normal 0.0 -0.82 0.29
  outer loop
    vertex 0.0 0.0 0.0
    vertex 1.0 0.0 0.0
    vertex 0.5 0.29 0.82
  endloop
endfacet
facet normal 0.7134 0.41 0.29000002
  outer loop
    vertex 1.0 0.0 0.0
    vertex 0.5 0.87 0.0
    vertex 0.5 0.29 0.82
  endloop
endfacet
facet normal 0.7134 -0.41 -0.29000002
  outer loop
    vertex 0.0 0.0 0.0
    vertex 0.5 0.87 0.0
    vertex 0.5 0.29 0.82
  endloop
endfacet
facet normal 0.0 0.0 0.87
  outer loop
    vertex 0.0 0.0 0.0
    vertex 1.0 0.0 0.0
    vertex 0.5 0.87 0.0
  endloop
endfacet
endsolid tetrahedron_ASCII.stl
